<svg xmlns="http://www.w3.org/2000/svg" xmlns:xlink="http://www.w3.org/1999/xlink" width="40" zoomAndPan="magnify" viewBox="0 0 30 30.000001" height="40" preserveAspectRatio="xMidYMid meet" version="1.0"><defs><clipPath id="d55c7bf8d2"><path d="M 0.484375 0 L 29.515625 0 L 29.515625 29.03125 L 0.484375 29.03125 Z M 0.484375 0 " clip-rule="nonzero"/></clipPath><clipPath id="9226d6d78a"><path d="M 12.097656 8.71875 L 17.957031 8.71875 L 17.957031 20.3125 L 12.097656 20.3125 Z M 12.097656 8.71875 " clip-rule="nonzero"/></clipPath><clipPath id="a7171608d6"><path d="M 9.238281 11.613281 L 20.851562 11.613281 L 20.851562 17.398438 L 9.238281 17.398438 Z M 9.238281 11.613281 " clip-rule="nonzero"/></clipPath></defs><g clip-path="url(#d55c7bf8d2)"><path fill="#ffffff" d="M 0.484375 0 L 29.515625 0 L 29.515625 29.03125 L 0.484375 29.03125 Z M 0.484375 0 " fill-opacity="1" fill-rule="nonzero"/><path fill="#000000" d="M 0.484375 0 L 29.515625 0 L 29.515625 29.03125 L 0.484375 29.03125 Z M 0.484375 0 " fill-opacity="1" fill-rule="nonzero"/></g><g clip-path="url(#9226d6d78a)"><path fill="#ffffff" d="M 17.945312 18.441406 L 17.941406 18.363281 C 17.941406 18.335938 17.9375 18.308594 17.9375 18.285156 L 17.925781 18.203125 L 17.921875 18.164062 L 17.914062 18.128906 C 17.882812 17.921875 17.824219 17.726562 17.753906 17.539062 C 17.722656 17.445312 17.679688 17.355469 17.640625 17.265625 C 17.601562 17.175781 17.558594 17.085938 17.511719 17 C 17.421875 16.824219 17.324219 16.65625 17.21875 16.492188 C 17.113281 16.324219 17.003906 16.164062 16.886719 16.007812 C 16.65625 15.691406 16.40625 15.386719 16.144531 15.089844 C 16.011719 14.941406 15.875 14.796875 15.738281 14.652344 C 15.597656 14.507812 15.457031 14.367188 15.308594 14.222656 C 15.171875 14.097656 15.035156 13.960938 14.902344 13.824219 C 14.769531 13.691406 14.640625 13.550781 14.515625 13.414062 C 14.265625 13.132812 14.027344 12.851562 13.808594 12.5625 C 13.699219 12.414062 13.59375 12.269531 13.496094 12.121094 C 13.398438 11.976562 13.308594 11.824219 13.226562 11.675781 C 13.183594 11.601562 13.148438 11.527344 13.109375 11.449219 C 13.074219 11.375 13.039062 11.300781 13.007812 11.222656 C 12.949219 11.074219 12.898438 10.921875 12.871094 10.777344 C 12.8125 10.492188 12.835938 10.195312 12.9375 9.949219 C 12.988281 9.828125 13.0625 9.71875 13.148438 9.628906 C 13.234375 9.539062 13.339844 9.472656 13.449219 9.425781 C 13.675781 9.332031 13.9375 9.335938 14.183594 9.425781 C 14.304688 9.46875 14.421875 9.53125 14.53125 9.609375 L 14.554688 9.625 L 14.574219 9.640625 L 14.621094 9.675781 C 14.632812 9.6875 14.648438 9.695312 14.660156 9.707031 C 14.671875 9.71875 14.683594 9.730469 14.695312 9.742188 L 14.769531 9.8125 C 14.871094 9.910156 14.960938 10.003906 15.054688 10.097656 C 15.09375 10.054688 15.136719 10.007812 15.175781 9.964844 L 15.234375 9.902344 L 15.296875 9.835938 C 15.339844 9.792969 15.378906 9.75 15.417969 9.710938 L 15.449219 9.683594 C 15.460938 9.671875 15.472656 9.664062 15.484375 9.652344 L 15.519531 9.625 C 15.539062 9.605469 15.5625 9.585938 15.585938 9.570312 C 15.609375 9.554688 15.628906 9.535156 15.65625 9.519531 C 15.679688 9.503906 15.703125 9.488281 15.726562 9.472656 C 15.75 9.457031 15.773438 9.445312 15.796875 9.429688 C 15.894531 9.378906 15.996094 9.339844 16.097656 9.3125 C 16.199219 9.285156 16.304688 9.273438 16.402344 9.277344 C 16.605469 9.28125 16.800781 9.34375 16.957031 9.460938 C 17.039062 9.515625 17.109375 9.582031 17.171875 9.65625 C 17.230469 9.730469 17.28125 9.816406 17.324219 9.902344 C 17.335938 9.921875 17.34375 9.945312 17.355469 9.96875 C 17.363281 9.988281 17.371094 10.011719 17.378906 10.035156 L 17.390625 10.066406 L 17.402344 10.101562 C 17.40625 10.125 17.414062 10.148438 17.421875 10.171875 C 17.425781 10.195312 17.429688 10.21875 17.4375 10.242188 L 17.445312 10.277344 L 17.449219 10.3125 C 17.453125 10.335938 17.457031 10.359375 17.457031 10.382812 C 17.460938 10.40625 17.460938 10.429688 17.464844 10.453125 C 17.464844 10.476562 17.46875 10.5 17.46875 10.523438 C 17.46875 10.546875 17.46875 10.570312 17.46875 10.589844 C 17.46875 10.636719 17.46875 10.683594 17.460938 10.730469 C 17.460938 10.773438 17.453125 10.820312 17.445312 10.863281 C 17.4375 10.910156 17.429688 10.953125 17.421875 10.996094 C 17.382812 11.175781 17.324219 11.339844 17.261719 11.5 C 17.199219 11.65625 17.132812 11.804688 17.0625 11.941406 C 17.054688 11.953125 17.050781 11.964844 17.042969 11.976562 C 17.15625 11.910156 17.265625 11.851562 17.375 11.796875 C 17.410156 11.730469 17.445312 11.664062 17.480469 11.59375 C 17.5625 11.433594 17.636719 11.261719 17.695312 11.070312 C 17.710938 11.023438 17.722656 10.972656 17.734375 10.921875 C 17.746094 10.871094 17.757812 10.820312 17.765625 10.769531 C 17.777344 10.71875 17.78125 10.664062 17.789062 10.609375 C 17.789062 10.582031 17.792969 10.554688 17.792969 10.527344 C 17.796875 10.496094 17.792969 10.46875 17.796875 10.441406 C 17.796875 10.414062 17.796875 10.386719 17.792969 10.359375 C 17.792969 10.332031 17.792969 10.300781 17.789062 10.273438 L 17.78125 10.1875 C 17.777344 10.160156 17.773438 10.128906 17.769531 10.101562 C 17.761719 10.074219 17.757812 10.042969 17.75 10.015625 L 17.742188 9.972656 L 17.730469 9.929688 C 17.722656 9.898438 17.714844 9.871094 17.703125 9.839844 C 17.695312 9.8125 17.683594 9.78125 17.671875 9.753906 C 17.625 9.640625 17.570312 9.523438 17.492188 9.417969 C 17.417969 9.3125 17.324219 9.210938 17.21875 9.125 C 17.007812 8.949219 16.730469 8.832031 16.433594 8.804688 C 16.289062 8.792969 16.136719 8.796875 15.992188 8.828125 C 15.84375 8.855469 15.699219 8.90625 15.5625 8.96875 C 15.53125 8.984375 15.496094 9 15.460938 9.015625 C 15.429688 9.035156 15.398438 9.054688 15.363281 9.074219 C 15.332031 9.09375 15.300781 9.113281 15.269531 9.136719 C 15.238281 9.15625 15.207031 9.175781 15.179688 9.199219 L 15.136719 9.234375 C 15.132812 9.234375 15.128906 9.238281 15.121094 9.242188 L 15.097656 9.261719 C 15.082031 9.273438 15.066406 9.285156 15.054688 9.296875 C 15.039062 9.277344 15.023438 9.257812 15.007812 9.242188 C 15 9.234375 14.992188 9.226562 14.984375 9.21875 L 14.941406 9.179688 L 14.886719 9.140625 C 14.746094 9.027344 14.585938 8.929688 14.410156 8.855469 C 14.234375 8.78125 14.039062 8.734375 13.832031 8.722656 C 13.628906 8.710938 13.414062 8.734375 13.214844 8.808594 C 13.015625 8.882812 12.824219 8.996094 12.667969 9.144531 C 12.511719 9.292969 12.386719 9.472656 12.296875 9.667969 C 12.207031 9.859375 12.152344 10.066406 12.128906 10.277344 L 12.117188 10.355469 L 12.109375 10.511719 L 12.113281 10.589844 L 12.117188 10.671875 C 12.117188 10.699219 12.121094 10.722656 12.125 10.75 L 12.136719 10.867188 L 12.144531 10.90625 C 12.175781 11.109375 12.234375 11.304688 12.304688 11.492188 C 12.335938 11.585938 12.378906 11.675781 12.417969 11.765625 C 12.460938 11.855469 12.5 11.945312 12.546875 12.03125 C 12.636719 12.207031 12.734375 12.375 12.839844 12.539062 C 12.945312 12.707031 13.054688 12.867188 13.171875 13.023438 C 13.402344 13.34375 13.652344 13.644531 13.914062 13.941406 C 14.046875 14.089844 14.183594 14.238281 14.320312 14.378906 C 14.460938 14.523438 14.601562 14.664062 14.75 14.808594 C 14.886719 14.933594 15.023438 15.070312 15.15625 15.207031 C 15.289062 15.34375 15.417969 15.480469 15.542969 15.621094 C 15.792969 15.898438 16.03125 16.183594 16.25 16.472656 C 16.359375 16.617188 16.464844 16.761719 16.5625 16.910156 C 16.660156 17.058594 16.75 17.207031 16.832031 17.355469 C 16.875 17.429688 16.914062 17.507812 16.949219 17.582031 C 16.984375 17.65625 17.019531 17.734375 17.050781 17.808594 C 17.109375 17.957031 17.160156 18.109375 17.1875 18.253906 C 17.246094 18.539062 17.222656 18.839844 17.121094 19.082031 C 17.070312 19.203125 16.996094 19.3125 16.910156 19.402344 C 16.824219 19.492188 16.722656 19.558594 16.609375 19.609375 C 16.382812 19.699219 16.121094 19.695312 15.875 19.605469 C 15.753906 19.5625 15.636719 19.5 15.527344 19.421875 L 15.503906 19.40625 L 15.484375 19.390625 L 15.4375 19.355469 C 15.425781 19.347656 15.410156 19.335938 15.398438 19.324219 C 15.386719 19.3125 15.375 19.300781 15.363281 19.289062 L 15.289062 19.21875 C 15.191406 19.125 15.097656 19.027344 15.003906 18.933594 C 14.964844 18.980469 14.925781 19.023438 14.882812 19.066406 L 14.824219 19.132812 L 14.761719 19.195312 C 14.71875 19.238281 14.679688 19.28125 14.640625 19.320312 L 14.609375 19.351562 C 14.597656 19.359375 14.585938 19.367188 14.574219 19.378906 L 14.542969 19.40625 C 14.519531 19.429688 14.496094 19.445312 14.472656 19.460938 C 14.449219 19.480469 14.429688 19.5 14.402344 19.511719 C 14.378906 19.527344 14.355469 19.542969 14.332031 19.558594 C 14.308594 19.574219 14.285156 19.585938 14.261719 19.601562 C 14.164062 19.652344 14.0625 19.695312 13.960938 19.71875 C 13.859375 19.746094 13.753906 19.757812 13.65625 19.757812 C 13.453125 19.75 13.257812 19.6875 13.101562 19.574219 C 13.023438 19.515625 12.949219 19.449219 12.890625 19.375 C 12.828125 19.300781 12.777344 19.214844 12.734375 19.128906 C 12.726562 19.109375 12.714844 19.085938 12.703125 19.066406 C 12.695312 19.042969 12.6875 19.019531 12.679688 18.996094 L 12.667969 18.964844 L 12.65625 18.929688 C 12.652344 18.90625 12.644531 18.882812 12.636719 18.859375 C 12.632812 18.835938 12.628906 18.8125 12.621094 18.789062 L 12.613281 18.753906 L 12.609375 18.71875 C 12.605469 18.695312 12.601562 18.671875 12.601562 18.648438 C 12.597656 18.625 12.597656 18.601562 12.59375 18.578125 C 12.59375 18.554688 12.589844 18.53125 12.589844 18.507812 C 12.589844 18.488281 12.589844 18.464844 12.589844 18.441406 C 12.589844 18.394531 12.589844 18.347656 12.597656 18.304688 C 12.597656 18.257812 12.605469 18.210938 12.613281 18.167969 C 12.621094 18.121094 12.628906 18.078125 12.640625 18.035156 C 12.675781 17.859375 12.734375 17.691406 12.796875 17.53125 C 12.859375 17.375 12.925781 17.226562 12.996094 17.089844 C 13.007812 17.070312 13.015625 17.050781 13.027344 17.035156 C 12.941406 17.085938 12.859375 17.128906 12.777344 17.171875 C 12.75 17.1875 12.722656 17.199219 12.695312 17.214844 C 12.65625 17.285156 12.617188 17.359375 12.578125 17.4375 C 12.5 17.597656 12.421875 17.769531 12.363281 17.960938 C 12.347656 18.011719 12.335938 18.058594 12.324219 18.109375 C 12.3125 18.160156 12.300781 18.210938 12.292969 18.261719 C 12.28125 18.316406 12.277344 18.371094 12.269531 18.421875 C 12.269531 18.449219 12.265625 18.480469 12.265625 18.507812 C 12.261719 18.535156 12.265625 18.5625 12.261719 18.589844 C 12.265625 18.617188 12.261719 18.644531 12.265625 18.671875 C 12.265625 18.703125 12.269531 18.730469 12.269531 18.757812 L 12.277344 18.84375 C 12.28125 18.871094 12.285156 18.902344 12.289062 18.929688 C 12.296875 18.960938 12.300781 18.988281 12.308594 19.015625 L 12.316406 19.0625 L 12.328125 19.105469 C 12.335938 19.132812 12.34375 19.164062 12.355469 19.191406 C 12.363281 19.21875 12.375 19.25 12.386719 19.277344 C 12.433594 19.394531 12.488281 19.507812 12.566406 19.613281 C 12.640625 19.71875 12.734375 19.820312 12.839844 19.90625 C 13.050781 20.085938 13.328125 20.199219 13.625 20.226562 C 13.769531 20.238281 13.921875 20.234375 14.066406 20.203125 C 14.214844 20.175781 14.359375 20.128906 14.496094 20.066406 C 14.527344 20.046875 14.5625 20.03125 14.597656 20.015625 C 14.628906 19.996094 14.660156 19.976562 14.695312 19.957031 C 14.726562 19.941406 14.757812 19.917969 14.789062 19.898438 C 14.820312 19.875 14.851562 19.855469 14.878906 19.832031 L 14.925781 19.796875 C 14.925781 19.796875 14.933594 19.792969 14.9375 19.789062 L 14.960938 19.769531 C 14.976562 19.757812 14.992188 19.746094 15.003906 19.734375 C 15.019531 19.753906 15.035156 19.773438 15.050781 19.789062 C 15.058594 19.796875 15.066406 19.804688 15.074219 19.8125 L 15.117188 19.851562 L 15.144531 19.875 L 15.171875 19.894531 C 15.3125 20.003906 15.472656 20.101562 15.648438 20.175781 C 15.824219 20.25 16.019531 20.300781 16.226562 20.3125 C 16.429688 20.320312 16.644531 20.296875 16.84375 20.222656 C 17.042969 20.148438 17.234375 20.035156 17.390625 19.886719 C 17.546875 19.738281 17.671875 19.558594 17.765625 19.363281 C 17.851562 19.171875 17.90625 18.964844 17.933594 18.757812 L 17.941406 18.679688 L 17.949219 18.523438 L 17.945312 18.441406 " fill-opacity="1" fill-rule="nonzero"/></g><g clip-path="url(#a7171608d6)"><path fill="#ffffff" d="M 17.796875 16.734375 C 17.796875 16.734375 17.824219 16.75 17.875 16.78125 C 17.929688 16.808594 18.003906 16.851562 18.109375 16.902344 C 18.214844 16.953125 18.347656 17.011719 18.511719 17.066406 C 18.671875 17.121094 18.867188 17.171875 19.097656 17.179688 C 19.152344 17.179688 19.210938 17.179688 19.273438 17.175781 C 19.332031 17.175781 19.394531 17.167969 19.457031 17.160156 C 19.585938 17.140625 19.714844 17.109375 19.847656 17.054688 C 19.980469 17 20.113281 16.925781 20.238281 16.828125 C 20.359375 16.726562 20.46875 16.601562 20.554688 16.449219 C 20.644531 16.300781 20.703125 16.128906 20.730469 15.941406 C 20.753906 15.757812 20.738281 15.5625 20.691406 15.375 C 20.644531 15.183594 20.5625 15 20.453125 14.828125 C 20.425781 14.789062 20.398438 14.746094 20.367188 14.703125 C 20.351562 14.683594 20.339844 14.664062 20.324219 14.644531 C 20.316406 14.636719 20.3125 14.628906 20.308594 14.621094 C 20.296875 14.609375 20.285156 14.59375 20.273438 14.578125 C 20.261719 14.566406 20.25 14.554688 20.238281 14.539062 C 20.261719 14.519531 20.285156 14.503906 20.304688 14.488281 C 20.316406 14.476562 20.324219 14.46875 20.335938 14.460938 L 20.339844 14.453125 L 20.355469 14.4375 L 20.394531 14.394531 C 20.496094 14.269531 20.589844 14.132812 20.667969 13.976562 C 20.746094 13.824219 20.804688 13.652344 20.832031 13.472656 C 20.859375 13.289062 20.855469 13.097656 20.816406 12.90625 C 20.808594 12.859375 20.792969 12.8125 20.777344 12.765625 C 20.765625 12.71875 20.746094 12.671875 20.726562 12.625 C 20.703125 12.582031 20.683594 12.535156 20.660156 12.492188 C 20.632812 12.449219 20.609375 12.40625 20.578125 12.367188 C 20.464844 12.203125 20.316406 12.058594 20.148438 11.945312 C 19.976562 11.832031 19.789062 11.75 19.59375 11.699219 L 19.519531 11.679688 L 19.445312 11.667969 L 19.371094 11.652344 L 19.222656 11.636719 L 19.144531 11.632812 L 19.070312 11.628906 L 18.992188 11.628906 C 18.789062 11.632812 18.585938 11.664062 18.398438 11.714844 C 18.207031 11.765625 18.023438 11.832031 17.847656 11.90625 C 17.496094 12.058594 17.164062 12.246094 16.847656 12.457031 C 16.6875 12.5625 16.53125 12.671875 16.378906 12.785156 C 16.222656 12.898438 16.074219 13.019531 15.925781 13.140625 C 15.625 13.386719 15.335938 13.644531 15.054688 13.917969 C 14.976562 13.996094 14.898438 14.074219 14.820312 14.15625 C 14.78125 14.195312 14.742188 14.234375 14.703125 14.273438 C 14.667969 14.308594 14.632812 14.347656 14.597656 14.382812 C 14.449219 14.53125 14.300781 14.675781 14.152344 14.816406 C 13.847656 15.097656 13.542969 15.363281 13.230469 15.609375 C 13.074219 15.730469 12.914062 15.847656 12.757812 15.957031 C 12.597656 16.066406 12.4375 16.171875 12.277344 16.261719 C 12.113281 16.355469 11.953125 16.441406 11.789062 16.511719 C 11.628906 16.582031 11.464844 16.636719 11.308594 16.671875 L 11.25 16.6875 C 11.230469 16.691406 11.210938 16.691406 11.191406 16.695312 C 11.152344 16.699219 11.113281 16.710938 11.074219 16.710938 C 11 16.71875 10.921875 16.71875 10.84375 16.714844 C 10.691406 16.703125 10.546875 16.675781 10.414062 16.621094 C 10.28125 16.570312 10.164062 16.496094 10.066406 16.402344 C 9.96875 16.308594 9.894531 16.199219 9.847656 16.082031 C 9.796875 15.960938 9.777344 15.832031 9.777344 15.699219 C 9.78125 15.570312 9.808594 15.4375 9.855469 15.3125 C 9.902344 15.1875 9.964844 15.066406 10.042969 14.957031 C 10.050781 14.941406 10.0625 14.929688 10.074219 14.917969 L 10.089844 14.894531 L 10.113281 14.863281 C 10.152344 14.820312 10.195312 14.777344 10.234375 14.734375 C 10.3125 14.648438 10.394531 14.570312 10.472656 14.492188 C 10.378906 14.40625 10.285156 14.324219 10.199219 14.242188 C 10.175781 14.222656 10.15625 14.199219 10.132812 14.179688 C 10.113281 14.160156 10.09375 14.140625 10.074219 14.117188 L 10.035156 14.074219 L 10.003906 14.035156 C 9.914062 13.933594 9.84375 13.820312 9.785156 13.707031 C 9.675781 13.476562 9.632812 13.234375 9.664062 13.011719 C 9.691406 12.785156 9.796875 12.589844 9.925781 12.441406 C 9.988281 12.363281 10.0625 12.300781 10.136719 12.246094 C 10.175781 12.21875 10.214844 12.191406 10.253906 12.171875 C 10.273438 12.160156 10.292969 12.152344 10.3125 12.140625 C 10.332031 12.128906 10.351562 12.121094 10.371094 12.113281 C 10.527344 12.039062 10.675781 12.003906 10.808594 11.984375 C 10.828125 11.980469 10.84375 11.976562 10.859375 11.976562 C 10.875 11.972656 10.890625 11.972656 10.90625 11.96875 C 10.9375 11.96875 10.96875 11.964844 10.996094 11.960938 C 11.054688 11.957031 11.105469 11.957031 11.152344 11.960938 C 11.246094 11.964844 11.316406 11.972656 11.367188 11.976562 C 11.414062 11.984375 11.4375 11.988281 11.4375 11.988281 C 11.4375 11.988281 11.414062 11.980469 11.367188 11.96875 C 11.320312 11.957031 11.25 11.9375 11.15625 11.921875 C 11.109375 11.914062 11.054688 11.910156 10.996094 11.90625 C 10.96875 11.90625 10.9375 11.902344 10.902344 11.902344 C 10.886719 11.902344 10.871094 11.902344 10.855469 11.902344 C 10.835938 11.902344 10.820312 11.902344 10.804688 11.902344 C 10.664062 11.910156 10.5 11.929688 10.320312 11.988281 C 10.296875 11.996094 10.277344 12.003906 10.253906 12.011719 C 10.230469 12.019531 10.207031 12.027344 10.1875 12.039062 C 10.140625 12.058594 10.09375 12.082031 10.046875 12.105469 C 9.957031 12.160156 9.867188 12.222656 9.78125 12.300781 C 9.695312 12.382812 9.617188 12.476562 9.546875 12.585938 C 9.480469 12.699219 9.429688 12.824219 9.394531 12.960938 C 9.363281 13.09375 9.351562 13.242188 9.363281 13.390625 C 9.375 13.539062 9.410156 13.691406 9.464844 13.839844 C 9.519531 13.988281 9.597656 14.132812 9.691406 14.265625 L 9.710938 14.292969 L 9.726562 14.316406 C 9.742188 14.332031 9.753906 14.347656 9.765625 14.363281 L 9.796875 14.410156 C 9.820312 14.441406 9.84375 14.464844 9.867188 14.492188 C 9.839844 14.515625 9.808594 14.539062 9.785156 14.5625 C 9.769531 14.574219 9.757812 14.585938 9.746094 14.597656 L 9.714844 14.628906 C 9.699219 14.648438 9.6875 14.660156 9.671875 14.679688 C 9.566406 14.808594 9.46875 14.957031 9.394531 15.121094 C 9.316406 15.289062 9.261719 15.472656 9.242188 15.667969 C 9.226562 15.863281 9.246094 16.070312 9.308594 16.269531 C 9.375 16.46875 9.484375 16.65625 9.628906 16.816406 C 9.777344 16.972656 9.957031 17.105469 10.15625 17.199219 C 10.355469 17.289062 10.570312 17.34375 10.785156 17.371094 C 10.894531 17.382812 11.003906 17.386719 11.117188 17.382812 C 11.171875 17.382812 11.226562 17.375 11.28125 17.367188 C 11.308594 17.363281 11.335938 17.363281 11.363281 17.359375 L 11.445312 17.34375 C 11.660156 17.304688 11.863281 17.242188 12.0625 17.167969 C 12.257812 17.09375 12.449219 17.003906 12.636719 16.902344 C 12.824219 16.804688 13.003906 16.695312 13.179688 16.582031 C 13.359375 16.46875 13.53125 16.347656 13.703125 16.21875 C 14.042969 15.964844 14.375 15.691406 14.695312 15.398438 C 14.855469 15.253906 15.015625 15.101562 15.171875 14.945312 C 15.210938 14.90625 15.25 14.867188 15.289062 14.828125 C 15.324219 14.789062 15.363281 14.75 15.398438 14.714844 C 15.472656 14.640625 15.546875 14.566406 15.621094 14.492188 C 15.886719 14.230469 16.160156 13.984375 16.441406 13.75 C 16.578125 13.632812 16.71875 13.519531 16.859375 13.414062 C 17 13.304688 17.140625 13.199219 17.285156 13.101562 C 17.570312 12.902344 17.863281 12.726562 18.15625 12.589844 C 18.304688 12.519531 18.449219 12.464844 18.597656 12.417969 C 18.742188 12.375 18.882812 12.347656 19.019531 12.339844 L 19.070312 12.335938 L 19.175781 12.335938 L 19.277344 12.34375 L 19.378906 12.359375 L 19.425781 12.367188 C 19.558594 12.394531 19.679688 12.441406 19.785156 12.503906 C 19.894531 12.566406 19.984375 12.648438 20.058594 12.742188 C 20.078125 12.761719 20.09375 12.789062 20.109375 12.8125 C 20.125 12.835938 20.140625 12.863281 20.152344 12.886719 C 20.164062 12.914062 20.179688 12.941406 20.1875 12.96875 C 20.199219 12.996094 20.210938 13.023438 20.214844 13.050781 C 20.28125 13.273438 20.253906 13.523438 20.160156 13.75 C 20.113281 13.863281 20.050781 13.96875 19.976562 14.070312 L 19.949219 14.109375 L 19.941406 14.117188 L 19.929688 14.136719 C 19.917969 14.148438 19.910156 14.160156 19.898438 14.171875 C 19.878906 14.191406 19.859375 14.214844 19.839844 14.234375 L 19.777344 14.296875 C 19.695312 14.382812 19.613281 14.460938 19.535156 14.539062 C 19.59375 14.59375 19.652344 14.644531 19.710938 14.699219 C 19.769531 14.753906 19.824219 14.804688 19.878906 14.859375 C 19.894531 14.871094 19.90625 14.882812 19.921875 14.898438 C 19.933594 14.910156 19.945312 14.925781 19.957031 14.941406 C 19.972656 14.957031 19.988281 14.972656 20 14.988281 C 20.027344 15.019531 20.050781 15.050781 20.078125 15.082031 C 20.175781 15.210938 20.25 15.347656 20.296875 15.488281 C 20.347656 15.628906 20.367188 15.769531 20.363281 15.910156 C 20.359375 16.046875 20.324219 16.183594 20.269531 16.300781 C 20.214844 16.421875 20.136719 16.53125 20.046875 16.621094 C 19.957031 16.710938 19.855469 16.78125 19.746094 16.839844 C 19.640625 16.894531 19.527344 16.9375 19.417969 16.964844 C 19.363281 16.976562 19.308594 16.992188 19.253906 16.996094 C 19.199219 17.007812 19.148438 17.011719 19.09375 17.015625 C 18.886719 17.03125 18.699219 17.003906 18.535156 16.972656 C 18.375 16.941406 18.238281 16.898438 18.128906 16.863281 C 18.019531 16.824219 17.9375 16.792969 17.882812 16.769531 C 17.828125 16.746094 17.796875 16.734375 17.796875 16.734375 " fill-opacity="1" fill-rule="nonzero"/></g></svg>